<svg width="30" height="33" viewBox="0 0 30 33" fill="none" xmlns="http://www.w3.org/2000/svg">
<path d="M29.3021 21.8294C29.3021 22.9009 28.5214 24.2726 27.547 24.8554L16.1596 32.4734C15.285 33.0621 13.8234 33.0621 12.9488 32.4734L1.65529 24.8554C0.680898 24.2667 0 22.9009 0 21.8294V11.0854C0 10.014 0.680898 8.64229 1.65529 8.05947L13.0486 0.441534C13.9232 -0.147178 15.3848 -0.147178 16.2594 0.441534L27.6527 8.05947C28.5273 8.64818 29.3079 10.014 29.3079 11.0854V21.8294H29.3021Z" fill="#7DD346"/>
<path d="M26.5125 24.2959C27.4165 23.7602 28.1326 22.5121 28.1326 21.529V11.7269C28.1326 10.7438 27.4106 9.49571 26.6005 8.95998L16.0584 2.00729C15.6416 1.73648 15.0899 1.60108 14.5322 1.60697V31.6548C15.0546 31.6489 15.5712 31.5135 15.9645 31.2545L26.5125 24.2959Z" fill="#9CEE69"/>
<path d="M15.9398 19.7828H14.5369V13.3717H14.4899L12.6703 14.5374V13.2422L14.5956 12H15.9339V19.7828H15.9398Z" fill="white"/>
<path d="M17.9918 12H20.9619C22.6466 12 23.4742 12.8595 23.4742 14.0193C23.4742 14.9671 22.8755 15.497 22.1183 15.6736V15.7501C22.9459 15.7913 23.7794 16.486 23.7794 17.6634C23.7794 18.8761 22.9107 19.7828 21.1322 19.7828H17.9918V12ZM20.7858 15.3086C21.5196 15.3086 22.0713 14.8847 22.0713 14.2018C22.0713 13.6013 21.6428 13.1657 20.8152 13.1657H19.3947V15.3145H20.7858V15.3086ZM20.9091 18.6053C21.9304 18.6053 22.3531 18.1697 22.3531 17.5516C22.3531 16.8569 21.8131 16.327 20.9502 16.327H19.4006V18.6053H20.9091Z" fill="white"/>
<g clip-path="url(#clip0_2709_569)">
<path d="M8.36509 19.9916C8.56192 19.9916 8.72151 19.832 8.72151 19.6352C8.72151 19.4383 8.56192 19.2788 8.36509 19.2788C8.16824 19.2788 8.00867 19.4383 8.00867 19.6352C8.00867 19.832 8.16824 19.9916 8.36509 19.9916Z" fill="white"/>
<path d="M10.4125 17.2081L8.40437 17.4232C8.36764 17.4273 8.34865 17.3802 8.37791 17.3575L10.343 15.8276C10.4707 15.7233 10.5519 15.5608 10.5171 15.3868C10.4822 15.12 10.2618 14.946 9.98351 14.9809L7.84841 15.2934C7.81075 15.299 7.79051 15.2508 7.82071 15.2277L9.93713 13.6118C10.3549 13.2872 10.3894 12.649 10.0069 12.278C9.65885 11.93 9.10196 11.9415 8.75394 12.2895L5.34351 15.7578C5.21588 15.897 5.15798 16.0825 5.19285 16.2799C5.25075 16.593 5.5639 16.8019 5.87736 16.744L7.7158 16.3689C7.75565 16.3608 7.77744 16.414 7.74289 16.4358L5.70304 17.7413C5.44779 17.9038 5.33199 18.1936 5.41293 18.4838C5.49417 18.8666 5.87705 19.087 6.2481 18.9943L9.29713 18.2431C9.33137 18.2347 9.35659 18.2746 9.33449 18.302L8.85822 18.8897C8.7306 19.0522 8.93947 19.2725 9.11348 19.1449L10.6795 17.8574C10.9578 17.6255 10.7723 17.1729 10.4128 17.2078L10.4125 17.2081Z" fill="white"/>
</g>
<defs>
<clipPath id="clip0_2709_569">
<rect width="7.99997" height="7.99997" fill="white" transform="translate(4 12)"/>
</clipPath>
</defs>
</svg>
